<svg width="40" height="40" viewBox="0 0 40 40" fill="none" xmlns="http://www.w3.org/2000/svg">
<path d="M6 18.1025V30.1025C6 31.2088 6.89375 32.1025 8 32.1025H10C11.1063 32.1025 12 31.2088 12 30.1025V24.59C12.6187 25.0025 13.2875 25.34 14 25.5963V27.1025C14 27.6525 14.45 28.1025 15 28.1025C15.55 28.1025 16 27.6525 16 27.1025V26.0463C16.3313 26.0838 16.6625 26.1025 17 26.1025C17.3375 26.1025 17.6687 26.0838 18 26.0463V27.1025C18 27.6525 18.45 28.1025 19 28.1025C19.55 28.1025 20 27.6525 20 27.1025V25.59C20.7125 25.34 21.3813 25.0025 22 24.5838V30.1025C22 31.2088 22.8937 32.1025 24 32.1025H26C27.1063 32.1025 28 31.2088 28 30.1025V20.1025L30 22.1025V25.1963C30 25.79 30.175 26.365 30.5063 26.8588L33.125 30.79C33.675 31.6088 34.5937 32.1025 35.5812 32.1025C36.9875 32.1025 38.2 31.1088 38.475 29.7275L39.7438 23.3775C39.9063 22.565 39.725 21.7213 39.2438 21.0463L39 20.7025V15.6025C39 14.7713 38.3313 14.1025 37.5 14.1025C36.6687 14.1025 36 14.7713 36 15.6025V16.5025L32.6937 11.8713C31 9.50879 28.275 8.10254 25.3687 8.10254H9C4.85625 8.10254 1.5 11.4588 1.5 15.6025V18.9775C0.5875 19.715 0 20.84 0 22.1025V23.2025C0 23.7025 0.4 24.1025 0.9 24.1025C2.8875 24.1025 4.5 22.49 4.5 20.5025V15.6025C4.5 14.0838 5.25625 12.74 6.40625 11.9213C6.14375 12.5963 6 13.3338 6 14.1025V18.1025ZM37 25.1025C37 25.6525 36.55 26.1025 36 26.1025C35.45 26.1025 35 25.6525 35 25.1025C35 24.5525 35.45 24.1025 36 24.1025C36.55 24.1025 37 24.5525 37 25.1025ZM10.4125 14.515C10.15 14.2525 10 13.89 10 13.515C10 12.7338 10.6313 12.1025 11.4125 12.1025H22.5875C23.3687 12.1025 24 12.7338 24 13.515C24 13.89 23.85 14.2525 23.5875 14.515L22.125 15.9775C20.7625 17.34 18.9188 18.1025 17 18.1025C15.0812 18.1025 13.2375 17.34 11.8813 15.9838L10.4187 14.5213L10.4125 14.515Z" fill="#215273"/>
</svg>
