<svg width="40" height="40" viewBox="0 0 40 40" fill="none" xmlns="http://www.w3.org/2000/svg">
<path d="M25.2187 3.98117C23.0234 4.03273 21.125 5.00695 20.0781 6.98742C19.0313 8.96867 18.8203 12.0624 20.3594 16.3984V16.414C20.6094 17.1484 20.5469 17.914 20.1563 18.4765C19.7656 19.0468 19.1484 19.3827 18.4453 19.6093C17.0391 20.0624 15.1406 20.1093 13.0313 19.9609C9.22656 19.6874 4.79688 18.7343 1.90781 17.7812C1.725 22.1796 2.94531 26.664 5.44531 30.0624C8.11719 33.6952 12.1797 36.1171 17.6328 36.0155C21.1719 35.953 25.3516 35.4374 28.5859 34.0234C31.8203 32.6171 34.0547 30.4452 34.1563 26.8046V26.7968C34.2031 25.2499 32.7187 23.1171 31.3203 20.9609C30.625 19.8827 29.9687 18.789 29.6094 17.6484C29.25 16.5155 29.2188 15.2812 29.8594 14.1718L29.875 14.1484L29.8906 14.1249C31.625 11.578 31.3516 9.08585 30.1953 7.15304C29.0469 5.21632 26.9531 3.94054 25.2187 3.98117V3.98117ZM27.6016 7.26632C27.9744 7.26632 28.332 7.41437 28.5957 7.67793C28.8594 7.94148 29.0076 8.29897 29.0078 8.67179C29.0078 8.85646 28.9714 9.03933 28.9008 9.20994C28.8301 9.38056 28.7265 9.53558 28.5959 9.66616C28.4653 9.79674 28.3103 9.90033 28.1397 9.971C27.9691 10.0417 27.7862 10.078 27.6016 10.078C27.2286 10.078 26.8709 9.92988 26.6072 9.66616C26.3435 9.40244 26.1953 9.04475 26.1953 8.67179C26.1955 8.29897 26.3438 7.94148 26.6075 7.67793C26.8712 7.41437 27.2287 7.26632 27.6016 7.26632V7.26632ZM32.5 10.1718C32.5313 11.289 32.3125 12.4609 31.7812 13.6249C33.3047 13.5312 34.8125 13.3593 35.9687 12.9687C36.7187 12.7265 37.3047 12.3905 37.6719 12.0077C37.8828 11.7812 38.0234 11.539 38.1094 11.2499C36.1797 11.2734 34.125 10.7577 32.5 10.1718V10.1718ZM26.8281 21.3046C27.3359 22.3671 27.3047 23.5077 26.8828 24.4999C26.4609 25.4921 25.6875 26.3593 24.7187 27.1484C22.7891 28.7109 20.0625 29.9218 17.4063 30.6484C14.75 31.3749 12.2188 31.6484 10.4766 31.0234C9.60156 30.7109 8.86719 30.039 8.74219 29.1093C8.61719 28.1718 9.02344 27.1718 9.86719 25.9999L11.0078 26.828C10.2734 27.8437 10.0859 28.5624 10.1328 28.9218C10.1875 29.289 10.375 29.4921 10.9453 29.703C12.0938 30.1093 14.5313 29.9765 17.0391 29.289C19.5391 28.6093 22.1406 27.4296 23.8359 26.0546C24.6797 25.3671 25.2969 24.6327 25.5859 23.9452C25.8828 23.2577 25.9063 22.6327 25.5625 21.914L26.8281 21.3046Z" fill="#215273"/>
</svg>
