<svg width="40" height="40" viewBox="0 0 40 40" fill="none" xmlns="http://www.w3.org/2000/svg">
<path d="M40 20.0001C40 18.7079 38.8852 16.3469 36.4367 14.2188C35.0392 13.0167 33.4465 12.0624 31.7273 11.3969C31.6702 11.3756 31.6071 11.3762 31.5503 11.3987C31.4936 11.4212 31.4473 11.464 31.4203 11.5188C31.4086 11.5415 31.3969 11.5633 31.3836 11.586L30.6344 12.8282C29.3709 15.0099 28.706 17.4866 28.707 20.0078C28.7079 22.529 29.3747 25.0052 30.6398 27.186L30.6578 27.2165L31.3406 28.4665C31.3769 28.5329 31.4359 28.5839 31.5069 28.61C31.5779 28.6362 31.6559 28.6357 31.7266 28.6087C37.4711 26.361 40 21.9915 40 20.0001ZM32.6625 19.9891C32.4036 20.023 32.1406 19.9749 31.9104 19.8517C31.6803 19.7285 31.4945 19.5363 31.3791 19.3021C31.2637 19.0679 31.2246 18.8034 31.2671 18.5458C31.3097 18.2882 31.4319 18.0504 31.6165 17.8658C31.8011 17.6812 32.0389 17.559 32.2965 17.5164C32.5541 17.4738 32.8186 17.513 33.0528 17.6284C33.287 17.7437 33.4792 17.9296 33.6024 18.1597C33.7256 18.3899 33.7737 18.6529 33.7398 18.9118C33.7041 19.185 33.5791 19.4387 33.3843 19.6336C33.1895 19.8284 32.9357 19.9534 32.6625 19.9891V19.9891Z" fill="#215273"/>
<path d="M26.207 20C26.206 17.0362 26.9898 14.1251 28.4789 11.5625L28.4883 11.5461L28.8492 10.9469C28.8753 10.9042 28.8908 10.8559 28.8943 10.806C28.8978 10.7561 28.8893 10.706 28.8695 10.6601C28.8496 10.6142 28.8191 10.5737 28.7803 10.542C28.7416 10.5103 28.6958 10.4884 28.6469 10.4781C27.6355 10.2666 26.6106 10.1259 25.5797 10.057C25.4581 10.0492 25.3415 10.0057 25.2445 9.93205C23.7383 8.78674 20.7523 6.78361 17.7086 6.26877C17.5006 6.2343 17.2873 6.25301 17.0884 6.32314C16.8896 6.39327 16.7118 6.51256 16.5714 6.66989C16.4311 6.82723 16.3328 7.01751 16.2858 7.22302C16.2387 7.42853 16.2444 7.64261 16.3023 7.84533L17.132 10.7492C17.1536 10.8245 17.1462 10.9051 17.1111 10.9751C17.0761 11.0451 17.0161 11.0995 16.943 11.1274C14.0641 12.1969 11.5844 14.1547 9.77578 15.6469C9.66509 15.7375 9.52667 15.7874 9.38364 15.7882C9.2406 15.7891 9.1016 15.7409 8.98984 15.6516C8.74401 15.4563 8.49166 15.2638 8.23281 15.0742C5.13593 12.8125 1.49765 12.5149 1.34453 12.5039C1.15011 12.4892 0.954956 12.5202 0.774656 12.5944C0.594356 12.6686 0.433913 12.784 0.306149 12.9312C0.178385 13.0785 0.0868424 13.2536 0.0388385 13.4426C-0.00916547 13.6316 -0.0123001 13.8292 0.0296852 14.0195C0.0624977 14.1703 0.747654 17.1985 2.50625 19.6141C2.58541 19.7224 2.62808 19.853 2.62808 19.9871C2.62808 20.1213 2.58541 20.2519 2.50625 20.3602C0.747654 22.775 0.0624977 25.8039 0.0296852 25.9547C-0.0123001 26.1451 -0.00916547 26.3427 0.0388385 26.5316C0.0868424 26.7206 0.178385 26.8957 0.306149 27.043C0.433913 27.1903 0.594356 27.3056 0.774656 27.3798C0.954956 27.454 1.15011 27.485 1.34453 27.4703C1.50078 27.4594 5.13593 27.1578 8.2289 24.9016C8.48151 24.7162 8.72812 24.5281 8.96875 24.3375C9.0806 24.2484 9.21965 24.2003 9.36268 24.2013C9.50572 24.2022 9.64409 24.2523 9.75468 24.343C11.5711 25.8422 14.0555 27.8024 16.9422 28.8742C17.0152 28.9021 17.075 28.9563 17.11 29.0262C17.145 29.096 17.1526 29.1764 17.1312 29.2516L16.2984 32.1563C16.2405 32.359 16.2348 32.5731 16.2819 32.7786C16.3289 32.9841 16.4272 33.1744 16.5675 33.3317C16.7079 33.489 16.8857 33.6083 17.0845 33.6785C17.2834 33.7486 17.4967 33.7673 17.7047 33.7328C19.0453 33.5063 21.7578 32.7281 25.2086 30.0742C25.3072 29.999 25.4255 29.9542 25.5492 29.9453C26.5789 29.8779 27.6027 29.7395 28.6133 29.5313C28.661 29.5213 28.7057 29.5002 28.7438 29.4699C28.7819 29.4395 28.8124 29.4006 28.8328 29.3564C28.8533 29.3121 28.863 29.2637 28.8614 29.215C28.8598 29.1662 28.8468 29.1186 28.8234 29.0758L28.4711 28.4281C26.9864 25.8676 26.2053 22.9599 26.207 20V20Z" fill="#215273"/>
</svg>
