<svg width="40" height="40" viewBox="0 0 40 40" fill="none" xmlns="http://www.w3.org/2000/svg">
<g clip-path="url(#clip0_191_1978)">
<path d="M10.975 13.0375L13.2125 11.925L14.8375 15.1C15.0875 15.5875 14.7125 16.1875 14.1625 16.15C13.175 16.0875 12.1875 15.4375 11.7375 14.55L10.975 13.0375V13.0375ZM9.375 14.2875C9.025 14.2875 8.75 14.0125 8.75 13.6625V12.725C8.75 12.375 9.025 12.1 9.375 12.1C9.725 12.1 10 12.375 10 12.725V13.6625C10 14.0125 9.725 14.2875 9.375 14.2875Z" fill="#215273"/>
<path d="M30.0125 34.145L31.25 35.03V37.1125C31.2507 37.8781 31.5551 38.6122 32.0965 39.1535C32.6378 39.6949 33.3719 39.9993 34.1375 40H37.1125C37.8781 39.9993 38.6122 39.6949 39.1535 39.1535C39.6949 38.6122 39.9993 37.8781 40 37.1125V30.8125C40.0007 30.2268 39.8849 29.6467 39.6594 29.1062C39.4338 28.5656 39.103 28.0753 38.6862 27.6638L37.5 26.4775V15C37.4995 13.9589 37.1741 12.9439 36.569 12.0966C35.964 11.2494 35.1096 10.6121 34.125 10.2738C33.6547 10.1131 33.153 10.0665 32.6612 10.1378C32.1694 10.209 31.7015 10.3962 31.2962 10.6838C30.8925 10.9697 30.5638 11.3489 30.3381 11.7892C30.1124 12.2295 29.9964 12.7178 30 13.2125V13.75H19.045L16.8487 9.35625C16.5337 8.73531 16.107 8.17768 15.59 7.71125C16.004 7.57155 16.438 7.5002 16.875 7.5C17.645 7.5 18.3625 7.735 18.9675 8.13375C19.1276 8.24148 19.3141 8.30361 19.5068 8.31348C19.6996 8.32336 19.8914 8.2806 20.0617 8.18979C20.232 8.09898 20.3744 7.96354 20.4737 7.79799C20.5729 7.63244 20.6252 7.44301 20.625 7.25C20.6223 7.01611 20.5467 6.78888 20.4087 6.6L20.3912 6.575L20.3725 6.55375C19.7849 5.86996 19.0564 5.32124 18.237 4.94519C17.4176 4.56914 16.5266 4.37463 15.625 4.375C13.9325 4.375 12.4125 5.10875 11.2962 6.25H8.6375C7.25061 6.25432 5.92127 6.80492 4.9375 7.7825L1.125 11.595C0.767817 11.949 0.484456 12.3704 0.291341 12.8347C0.0982264 13.2991 -0.000801784 13.7971 -2.83332e-06 14.3C0.000860581 15.0535 0.192807 15.7944 0.557883 16.4535C0.922959 17.1126 1.44924 17.6683 2.0875 18.0687V19.7C2.0875 20.55 2.775 21.25 3.6375 21.25H4.375V18.75H4.73875L6.615 26.125C7.15495 27.9388 8.36528 29.479 10 30.4325V37.1C9.99933 37.8672 10.3029 38.6033 10.8442 39.1469C11.3855 39.6906 12.1203 39.9974 12.8875 40H15.8625C16.6281 39.9993 17.3622 39.6949 17.9035 39.1535C18.4449 38.6122 18.7493 37.8781 18.75 37.1125V34.7288C19.5234 33.7302 19.9609 32.5124 20 31.25H23.75V35.4725C23.75 35.6825 23.7125 35.88 23.625 36.0625L21.5375 39.3675C21.4125 39.6625 21.6 40 21.8875 40H25.675C26.05 40 26.3875 39.8037 26.6125 39.4662L29.625 36.3713C29.875 35.9925 30.0125 35.5275 30.0125 35.05V34.145V34.145ZM9.62375 9.14375C9.28375 10.3513 10.2075 11.525 11.4375 11.525C12.31 11.525 13.0475 10.9213 13.2662 10.0988L13.2687 10.0913C13.3387 9.81125 13.4475 9.5475 13.5875 9.30375C14.0212 9.6025 14.3737 10.0038 14.6125 10.475L16.85 14.9487C17.0433 15.3403 17.3426 15.6698 17.7138 15.8998C18.085 16.1299 18.5133 16.2512 18.95 16.25H32.4987V13.2125C32.4971 13.1161 32.519 13.0207 32.5626 12.9346C32.6061 12.8486 32.67 12.7745 32.7487 12.7188C32.8333 12.6635 32.9293 12.6279 33.0294 12.6147C33.1296 12.6015 33.2315 12.611 33.3275 12.6425C33.8161 12.8139 34.2394 13.1327 34.539 13.555C34.8386 13.9773 34.9997 14.4822 35 15V27.5125L36.9312 29.4438C37.1123 29.6226 37.2559 29.8358 37.3535 30.0708C37.4512 30.3059 37.501 30.558 37.5 30.8125V35H33.75V33.75L26.765 28.75H17.5V31.0625C17.5012 31.9384 17.1728 32.7827 16.58 33.4275L16.25 33.7862V35H12.5V28.8313L11.7362 28.51C11.0834 28.2242 10.5012 27.7987 10.0306 27.2635C9.56004 26.7283 9.2125 26.0965 9.0125 25.4125L6.8625 16.9625L6.875 11.5763V11.575C6.875 10.9413 6.56875 10.4325 6.13 10.12L6.7 9.55C7.215 9.03875 7.9125 8.75125 8.6375 8.75H9.74625C9.70108 8.87986 9.66023 9.01119 9.62375 9.14375V9.14375ZM37.5 36.25V37.125C37.5 37.2278 37.4592 37.3263 37.3865 37.399C37.3138 37.4717 37.2153 37.5125 37.1125 37.5125H34.1375C34.0347 37.5125 33.9362 37.4717 33.8635 37.399C33.7908 37.3263 33.75 37.2278 33.75 37.125V36.25H37.5V36.25ZM12.5 37.1V36.25H16.25V37.1125C16.25 37.2153 16.2092 37.3138 16.1365 37.3865C16.0638 37.4592 15.9653 37.5 15.8625 37.5H12.8875C12.8357 37.4994 12.7846 37.4885 12.7371 37.468C12.6895 37.4475 12.6465 37.4178 12.6105 37.3806C12.5745 37.3435 12.5462 37.2995 12.5272 37.2514C12.5083 37.2032 12.499 37.1518 12.5 37.1V37.1ZM2.8875 13.3625L5.2025 11.0475C5.32232 11.0744 5.42942 11.1413 5.5062 11.2372C5.58298 11.3331 5.62487 11.4522 5.625 11.575L5.615 16.25H4.45C4.05614 16.2494 3.67167 16.1297 3.34708 15.9066C3.02249 15.6835 2.77296 15.3675 2.63125 15H3.825C4.625 14.95 4.575 13.75 3.775 13.75H2.625C2.58786 13.823 2.55853 13.8996 2.5375 13.9788C2.59581 13.7453 2.71684 13.5322 2.8875 13.3625V13.3625Z" fill="#215273"/>
</g>
<defs>
<clipPath id="clip0_191_1978">
<rect width="40" height="40" fill="white"/>
</clipPath>
</defs>
</svg>
