<svg width="32" height="32" viewBox="0 0 32 32" fill="none" xmlns="http://www.w3.org/2000/svg">
<g clip-path="url(#clip0_354_2032)">
<path fill-rule="evenodd" clip-rule="evenodd" d="M20.1213 30.5975H12.2436V32.256H20.1213V30.5975Z" fill="white"/>
<path fill-rule="evenodd" clip-rule="evenodd" d="M15.1461 27.2806C14.9261 27.2806 14.7152 27.368 14.5597 27.5235C14.4042 27.679 14.3168 27.8899 14.3168 28.1098V31.4268C14.3168 31.6467 14.4042 31.8576 14.5597 32.0131C14.7152 32.1686 14.9261 32.256 15.1461 32.256C15.366 32.256 15.5769 32.1686 15.7324 32.0131C15.8879 31.8576 15.9753 31.6467 15.9753 31.4268V28.1098C15.9753 27.8899 15.8879 27.679 15.7324 27.5235C15.5769 27.368 15.366 27.2806 15.1461 27.2806ZM21.7799 14.8421C21.56 14.8421 21.3491 14.9295 21.1935 15.085C21.038 15.2405 20.9507 15.4515 20.9507 15.6714C20.9507 20.7595 17.0914 24.7929 12.4394 24.7929C9.85722 24.7929 7.53039 23.559 5.96149 21.5863C5.89365 21.5011 5.80968 21.4301 5.7144 21.3773C5.61911 21.3245 5.51436 21.2911 5.40614 21.2788C5.29791 21.2665 5.18833 21.2756 5.08364 21.3057C4.97895 21.3358 4.88122 21.3862 4.796 21.454C4.71079 21.5219 4.63978 21.6058 4.58701 21.7011C4.53425 21.7964 4.50078 21.9011 4.48849 22.0094C4.47621 22.1176 4.48537 22.2272 4.51544 22.3319C4.5455 22.4366 4.5959 22.5343 4.66374 22.6195C6.52039 24.9521 9.30826 26.4514 12.4394 26.4514C18.1047 26.4514 22.6091 21.5755 22.6091 15.6714C22.6091 15.4515 22.5218 15.2405 22.3663 15.085C22.2107 14.9295 21.9998 14.8421 21.7799 14.8421Z" fill="white"/>
<path fill-rule="evenodd" clip-rule="evenodd" d="M24.2874 4.89137C24.624 4.89138 24.9557 4.97179 25.255 5.12592C25.5542 5.28005 25.8122 5.50343 26.0077 5.77747C26.2031 6.0515 26.3302 6.36826 26.3785 6.70137C26.4267 7.03448 26.3947 7.37429 26.2851 7.69252L25.8107 9.06821C25.321 10.4884 25.2713 12.0233 25.6681 13.4723L26.0786 14.9698C26.8265 17.7005 26.965 20.4652 25.5006 22.4868C23.4051 25.3817 19.9249 27.2806 15.9752 27.2806C10.3083 27.2806 5.6173 23.3724 4.57993 18.2387C4.29717 16.8356 3.87675 15.3214 2.97952 14.0303L13.053 15.6531C14.0401 15.8123 15.0523 15.6704 15.9575 15.2458C16.8627 14.8213 17.6191 14.1339 18.1279 13.2732L22.4689 5.92874C22.6558 5.61275 22.9218 5.35089 23.2407 5.16899C23.5596 4.98708 23.9203 4.8914 24.2874 4.89137V4.89137ZM27.8531 8.23317C28.6965 5.78445 26.8771 3.23291 24.2866 3.23291C23.6313 3.23303 22.9873 3.40385 22.418 3.72854C21.8488 4.05322 21.3739 4.52058 21.0402 5.08458L16.6991 12.4291C16.36 13.003 15.8558 13.4614 15.2523 13.7445C14.6488 14.0276 13.974 14.1223 13.3159 14.0162L2.88416 12.3354C1.53251 12.1173 0.612065 13.6696 1.45125 14.7518C2.2556 15.7891 2.6611 17.1151 2.95381 18.5662C4.15205 24.4977 9.54205 28.9391 15.9752 28.9391C20.4647 28.9391 24.4417 26.7773 26.844 23.4595C28.7711 20.7977 28.4576 17.3771 27.6782 14.5312L27.2677 13.0344C26.9587 11.9075 26.9972 10.7136 27.378 9.60887L27.8523 8.23317H27.8531Z" fill="white"/>
<path fill-rule="evenodd" clip-rule="evenodd" d="M23.3671 0.745181C22.3223 -0.299651 20.5361 0.440024 20.5361 1.91771V3.23287H19.221C17.7433 3.23287 17.0036 5.01904 18.0484 6.06387L19.5352 7.55068C19.6916 7.70173 19.9011 7.78531 20.1185 7.78342C20.3359 7.78153 20.5439 7.69433 20.6977 7.54058C20.8514 7.38683 20.9386 7.17885 20.9405 6.96143C20.9424 6.74401 20.8588 6.53454 20.7078 6.37815L19.221 4.89134H20.5361C20.976 4.89134 21.3978 4.71661 21.7088 4.40558C22.0199 4.09456 22.1946 3.67273 22.1946 3.23287V1.91771L29.3144 9.03749H27.17C26.95 9.03749 26.7391 9.12486 26.5836 9.28037C26.4281 9.43588 26.3407 9.6468 26.3407 9.86672C26.3407 10.0866 26.4281 10.2976 26.5836 10.4531C26.7391 10.6086 26.95 10.696 27.17 10.696H29.3144C30.7921 10.696 31.5317 8.90979 30.4869 7.86496L23.3671 0.745181Z" fill="white"/>
<path d="M23.4382 6.54984C23.4382 6.76976 23.5256 6.98068 23.6811 7.13619C23.8366 7.2917 24.0475 7.37907 24.2674 7.37907C24.4874 7.37907 24.6983 7.2917 24.8538 7.13619C25.0093 6.98068 25.0967 6.76976 25.0967 6.54984C25.0967 6.32991 25.0093 6.11899 24.8538 5.96348C24.6983 5.80797 24.4874 5.7206 24.2674 5.7206C24.0475 5.7206 23.8366 5.80797 23.6811 5.96348C23.5256 6.11899 23.4382 6.32991 23.4382 6.54984Z" fill="white"/>
</g>
<defs>
<clipPath id="clip0_354_2032">
<rect width="32" height="32" fill="white" transform="matrix(-1 0 0 1 32 0)"/>
</clipPath>
</defs>
</svg>
