<svg width="40" height="40" viewBox="0 0 40 40" fill="none" xmlns="http://www.w3.org/2000/svg">
<g clip-path="url(#clip0_191_1988)">
<path d="M9.16667 27.4999C10.0507 27.4999 10.8986 27.8511 11.5237 28.4762C12.1488 29.1014 12.5 29.9492 12.5 30.8333C12.5 31.7173 12.1488 32.5652 11.5237 33.1903C10.8986 33.8154 10.0507 34.1666 9.16667 34.1666C8.28261 34.1666 7.43477 33.8154 6.80965 33.1903C6.18453 32.5652 5.83334 31.7173 5.83334 30.8333C5.83334 29.9492 6.18453 29.1014 6.80965 28.4762C7.43477 27.8511 8.28261 27.4999 9.16667 27.4999V27.4999ZM20 27.4999C20.8841 27.4999 21.7319 27.8511 22.357 28.4762C22.9821 29.1014 23.3333 29.9492 23.3333 30.8333C23.3333 31.7173 22.9821 32.5652 22.357 33.1903C21.7319 33.8154 20.8841 34.1666 20 34.1666C19.1159 34.1666 18.2681 33.8154 17.643 33.1903C17.0179 32.5652 16.6667 31.7173 16.6667 30.8333C16.6667 29.9492 17.0179 29.1014 17.643 28.4762C18.2681 27.8511 19.1159 27.4999 20 27.4999ZM30.8333 27.4999C31.7174 27.4999 32.5652 27.8511 33.1904 28.4762C33.8155 29.1014 34.1667 29.9492 34.1667 30.8333C34.1667 31.7173 33.8155 32.5652 33.1904 33.1903C32.5652 33.8154 31.7174 34.1666 30.8333 34.1666C29.9493 34.1666 29.1014 33.8154 28.4763 33.1903C27.8512 32.5652 27.5 31.7173 27.5 30.8333C27.5 29.9492 27.8512 29.1014 28.4763 28.4762C29.1014 27.8511 29.9493 27.4999 30.8333 27.4999V27.4999ZM9.16667 16.6666C10.0507 16.6666 10.8986 17.0178 11.5237 17.6429C12.1488 18.268 12.5 19.1159 12.5 19.9999C12.5 20.884 12.1488 21.7318 11.5237 22.3569C10.8986 22.9821 10.0507 23.3333 9.16667 23.3333C8.28261 23.3333 7.43477 22.9821 6.80965 22.3569C6.18453 21.7318 5.83334 20.884 5.83334 19.9999C5.83334 19.1159 6.18453 18.268 6.80965 17.6429C7.43477 17.0178 8.28261 16.6666 9.16667 16.6666V16.6666ZM20 16.6666C20.8841 16.6666 21.7319 17.0178 22.357 17.6429C22.9821 18.268 23.3333 19.1159 23.3333 19.9999C23.3333 20.884 22.9821 21.7318 22.357 22.3569C21.7319 22.9821 20.8841 23.3333 20 23.3333C19.1159 23.3333 18.2681 22.9821 17.643 22.3569C17.0179 21.7318 16.6667 20.884 16.6667 19.9999C16.6667 19.1159 17.0179 18.268 17.643 17.6429C18.2681 17.0178 19.1159 16.6666 20 16.6666V16.6666ZM30.8333 16.6666C31.7174 16.6666 32.5652 17.0178 33.1904 17.6429C33.8155 18.268 34.1667 19.1159 34.1667 19.9999C34.1667 20.884 33.8155 21.7318 33.1904 22.3569C32.5652 22.9821 31.7174 23.3333 30.8333 23.3333C29.9493 23.3333 29.1014 22.9821 28.4763 22.3569C27.8512 21.7318 27.5 20.884 27.5 19.9999C27.5 19.1159 27.8512 18.268 28.4763 17.6429C29.1014 17.0178 29.9493 16.6666 30.8333 16.6666V16.6666ZM9.16667 5.83325C10.0507 5.83325 10.8986 6.18444 11.5237 6.80956C12.1488 7.43468 12.5 8.28253 12.5 9.16659C12.5 10.0506 12.1488 10.8985 11.5237 11.5236C10.8986 12.1487 10.0507 12.4999 9.16667 12.4999C8.28261 12.4999 7.43477 12.1487 6.80965 11.5236C6.18453 10.8985 5.83334 10.0506 5.83334 9.16659C5.83334 8.28253 6.18453 7.43468 6.80965 6.80956C7.43477 6.18444 8.28261 5.83325 9.16667 5.83325V5.83325ZM20 5.83325C20.8841 5.83325 21.7319 6.18444 22.357 6.80956C22.9821 7.43468 23.3333 8.28253 23.3333 9.16659C23.3333 10.0506 22.9821 10.8985 22.357 11.5236C21.7319 12.1487 20.8841 12.4999 20 12.4999C19.1159 12.4999 18.2681 12.1487 17.643 11.5236C17.0179 10.8985 16.6667 10.0506 16.6667 9.16659C16.6667 8.28253 17.0179 7.43468 17.643 6.80956C18.2681 6.18444 19.1159 5.83325 20 5.83325ZM30.8333 5.83325C31.7174 5.83325 32.5652 6.18444 33.1904 6.80956C33.8155 7.43468 34.1667 8.28253 34.1667 9.16659C34.1667 10.0506 33.8155 10.8985 33.1904 11.5236C32.5652 12.1487 31.7174 12.4999 30.8333 12.4999C29.9493 12.4999 29.1014 12.1487 28.4763 11.5236C27.8512 10.8985 27.5 10.0506 27.5 9.16659C27.5 8.28253 27.8512 7.43468 28.4763 6.80956C29.1014 6.18444 29.9493 5.83325 30.8333 5.83325V5.83325Z" fill="#215273"/>
</g>
<defs>
<clipPath id="clip0_191_1988">
<rect width="40" height="40" fill="white"/>
</clipPath>
</defs>
</svg>
