<svg width="40" height="40" viewBox="0 0 40 40" fill="none" xmlns="http://www.w3.org/2000/svg">
<path d="M30.6875 8.39854C31.4141 8.8126 32.7031 9.1251 33.8125 9.11728C34.4141 9.10947 34.9531 9.02354 35.3359 8.86729C35.7266 8.72666 35.875 8.48447 36.0313 8.17978C35.3125 7.70478 34.3047 7.22119 33.5469 7.17432C32.3828 7.21572 31.2969 7.80947 30.6875 8.39854V8.39854ZM10.9219 9.97666C10.7891 10.4063 10.3047 10.6095 9.90625 10.3985C7.83594 9.26572 5.96407 9.85947 4.61641 11.0782C1.80938 13.6251 1.09063 17.8985 2.07969 22.461C2.65079 25.086 3.56329 26.6017 5.30547 27.3673C5.30547 27.3751 5.31328 27.3751 5.31719 27.3751C5.49063 27.4532 5.6461 27.5235 5.79297 27.5938L6.15313 25.8751C6.23282 25.4923 6.60625 25.2501 6.98594 25.3282C7.36563 25.4063 7.60938 25.7813 7.52969 26.1642L5.69375 34.9142C6.06797 35.4767 6.975 35.0079 7.35782 34.8204L10.3359 26.5001C11.1797 25.7657 11.9922 25.0157 12.5781 24.2188C13.0938 23.5079 13.3906 22.7813 13.4063 22.3829C13.4219 21.9923 13.75 21.6876 14.1406 21.7032C14.5313 21.7188 14.8438 22.0626 14.8125 22.4532C14.7656 23.3282 14.3281 24.2032 13.7188 25.047C13.1484 25.8282 12.4141 26.5782 11.5938 27.172L11.3359 27.8673C11.875 28.547 12.3828 28.9454 12.8672 29.1798C13.5547 29.5001 14.25 29.5392 15.0938 29.4376C16.375 29.2892 17.7969 28.4298 18.4922 26.5313C18.7109 25.9298 19.5547 25.9063 19.8047 26.4923C20.4063 28.1485 22.625 29.0392 24.1094 28.3673L23.8047 26.547C23.7422 26.1642 24 25.797 24.3828 25.7345C24.7656 25.6642 25.1328 25.9298 25.1953 26.3126L26.5703 34.586C27.2891 35.0782 27.7031 34.7735 28.125 34.2423L27.0469 25.3048C26.9922 24.8907 27.3047 24.5235 27.7188 24.5079C28.0938 24.4923 28.4063 24.7657 28.4453 25.1329L28.7813 27.922C29.1797 27.8282 29.4922 27.7267 29.75 27.5313C30.0859 27.2813 30.4141 26.8517 30.6953 25.8517C30.8281 25.3829 31.3984 25.1876 31.7969 25.4845C32.8594 26.1329 33.9375 25.3438 34.5781 24.5313C35.5859 23.2423 35.7266 21.2188 35.6094 19.1251C35.4453 19.1485 35.2813 19.1642 35.1172 19.172C34.4297 19.211 33.7188 19.1017 33.1094 18.8282C32.1406 18.2813 31.3906 17.3907 30.9063 16.5704C30.6016 16.0392 30.3359 15.5001 30.0859 15.0079C29.6641 15.7813 29.2266 16.8126 28.5859 16.961C27.6094 17.1251 26.7188 16.672 26.2578 15.9688C25.7969 15.2735 25.6797 14.3907 25.8828 13.5392C26.0938 12.6251 26.6484 10.547 27.6484 9.15635C27.8203 8.92978 28 8.74229 28.1797 8.57822C27.5938 8.33604 26.9141 8.28135 26.3906 8.28135C25.9375 8.28135 25.3359 8.42197 24.8516 8.67197C24.3672 8.92979 24.0156 9.28135 23.8984 9.59385C23.6484 10.2579 22.6875 10.1798 22.5469 9.49229C22.25 7.7126 18.3359 8.10166 17.4219 9.64854C17.125 10.1954 16.3203 10.1095 16.1328 9.51572C15.5 7.74932 11.2344 7.85166 10.9219 9.97666V9.97666ZM37.875 9.85947C38.0078 11.1407 38.1484 12.3751 38.2031 13.422C38.3438 13.9298 38.6719 14.8985 38.8828 13.9923C38.9531 13.672 38.9453 13.1329 38.8516 12.5392C38.8438 11.9845 37.7188 8.84385 37.875 9.85947V9.85947ZM29.0703 9.66416C28.1406 10.836 27.5703 12.586 27.25 13.8595C27.2031 14.3126 27.2031 14.8438 27.4297 15.1954C27.6094 15.461 27.8047 15.6017 28.1641 15.586C28.6172 14.8517 29.1094 14.0392 29.3828 13.3829C29.2891 12.7657 29.1641 11.8282 29.1016 10.9298C29.0703 10.4767 29.0547 10.0548 29.0703 9.66416ZM36.4453 9.85166C36.2578 9.97666 36.0703 10.0938 35.8594 10.172C35.25 10.422 34.5469 10.5157 33.8281 10.5235C32.6719 10.5313 31.4688 10.3126 30.4766 9.86729C30.4766 10.1485 30.4844 10.4688 30.5078 10.8282C30.5781 11.8126 30.7422 12.9532 30.8203 13.4454C31.6406 14.7423 32.375 16.9142 33.6953 17.547C34.1484 17.7032 34.625 17.7892 35.0391 17.7735C35.5078 17.7423 35.8672 17.5704 35.9375 17.4845C36.2109 16.8595 36.3984 16.297 36.5078 15.7423C36.6719 14.8907 36.7734 13.922 36.7891 13.2735C36.8125 12.7735 36.7422 12.2345 36.7031 11.8126C36.5938 12.1329 36.2578 12.3282 35.9219 12.2735C35.5859 12.2188 35.3359 11.9298 35.3359 11.586C35.3359 11.1876 35.6641 10.8673 36.0625 10.8829C36.2969 10.8829 36.5156 11.0157 36.6406 11.2188C36.5703 10.7423 36.5313 10.2813 36.4453 9.85166V9.85166ZM31.8906 11.1407C32.2734 11.1563 32.5703 11.4688 32.5703 11.8438C32.5703 12.2345 32.2578 12.547 31.8672 12.547C31.4844 12.547 31.1641 12.2345 31.1641 11.8438C31.1641 11.4532 31.4922 11.1329 31.8906 11.1407ZM35.6016 14.9142C35.8906 14.9063 36.1094 15.0626 36.1094 15.3985C36.1094 16.0079 35.6563 16.5704 35.1172 16.8829L35.0391 15.0782C35.2344 14.9688 35.4297 14.9142 35.6016 14.9142ZM33.7188 15.0704C33.8594 15.0626 34.0234 15.1017 34.1719 15.172L34.4688 16.9298C34 16.6407 33.2656 16.6485 33.1797 15.672C33.1406 15.2657 33.3984 15.0704 33.7188 15.0704V15.0704ZM31.3047 27.8985C31.0156 28.297 30.7109 28.6095 30.3203 28.8438L31.6172 33.6876C32.2109 33.8048 32.8594 33.7657 33.1172 33.2892L31.3047 27.8985ZM12.4609 30.5313L12.5781 34.1876C13.1953 34.8048 13.5859 34.5626 14.1172 33.9532L13.8281 30.8673C13.3359 30.797 12.8438 30.6954 12.4609 30.5313Z" fill="#215273"/>
</svg>
